<?xml version="1.0" encoding="UTF-8"?>
<!DOCTYPE svg PUBLIC "-//W3C//DTD SVG 1.1//EN" "http://www.w3.org/Graphics/SVG/1.1/DTD/svg11.dtd">
<svg xmlns="http://www.w3.org/2000/svg" xmlns:xlink="http://www.w3.org/1999/xlink" version="1.1" width="229px" height="51px" viewBox="-0.5 -0.5 229 51"><defs/><g><path d="M 0.5 0 L 50.5 0 L 50.5 50 L 0.5 50 Z" fill="#8ec5e8" stroke="#000000" stroke-miterlimit="10" pointer-events="all"/><path d="M 0.5 50 L 0.5 0 L 10.5 10 L 10.5 40 Z" fill="#8ec5e8" stroke="#000000" stroke-linejoin="round" stroke-miterlimit="10" pointer-events="all"/><path d="M 0.5 0 L 50.5 0 L 40.5 10 L 10.5 10 Z" fill="#8ec5e8" stroke="#000000" stroke-linejoin="round" stroke-miterlimit="10" pointer-events="all"/><path d="M 50.5 0 L 50.5 50 L 40.5 40 L 40.5 10 Z" fill="#8ec5e8" stroke="#000000" stroke-linejoin="round" stroke-miterlimit="10" pointer-events="all"/><path d="M 0.5 50 L 10.5 40 L 40.5 40 L 50.5 50 Z" fill="#8ec5e8" stroke="#000000" stroke-linejoin="round" stroke-miterlimit="10" pointer-events="all"/><path d="M 0.5 50 L 0.5 0 L 10.5 10 L 10.5 40 Z" fill="#8ec5e8" stroke="#000000" stroke-linejoin="round" stroke-miterlimit="10" pointer-events="all"/><path d="M 83 0 L 133 0 L 133 50 L 83 50 Z" fill="#8ec5e8" stroke="#000000" stroke-miterlimit="10" pointer-events="all"/><path d="M 83 50 L 83 0 L 93 10 L 93 40 Z" fill="#8ec5e8" stroke="#000000" stroke-linejoin="round" stroke-miterlimit="10" pointer-events="all"/><path d="M 83 0 L 133 0 L 123 10 L 93 10 Z" fill="#8ec5e8" stroke="#000000" stroke-linejoin="round" stroke-miterlimit="10" pointer-events="all"/><path d="M 133 0 L 133 50 L 123 40 L 123 10 Z" fill="#8ec5e8" stroke="#000000" stroke-linejoin="round" stroke-miterlimit="10" pointer-events="all"/><path d="M 83 50 L 93 40 L 123 40 L 133 50 Z" fill="#8ec5e8" stroke="#000000" stroke-linejoin="round" stroke-miterlimit="10" pointer-events="all"/><path d="M 83 50 L 83 0 L 93 10 L 93 40 Z" fill="#8ec5e8" stroke="#000000" stroke-linejoin="round" stroke-miterlimit="10" pointer-events="all"/><rect x="51.5" y="10" width="30" height="30" fill="none" stroke="none" pointer-events="all"/><g fill="#000000" font-family="Helvetica" text-anchor="middle" font-size="26px"><text x="66" y="34.5">ey</text></g><rect x="10" y="10" width="30" height="30" fill="none" stroke="none" pointer-events="all"/><g fill="#000000" font-family="Helvetica" text-anchor="middle" font-size="26px"><text x="24.5" y="34.5">K</text></g><rect x="92.5" y="10" width="30" height="30" fill="none" stroke="none" pointer-events="all"/><g fill="#000000" font-family="Helvetica" text-anchor="middle" font-size="26px"><text x="107" y="34.5">C</text></g><rect x="167" y="10" width="30" height="30" fill="none" stroke="none" pointer-events="all"/><g fill="#000000" font-family="Helvetica" text-anchor="middle" font-size="26px"><text x="181.5" y="34.5">ombiner</text></g></g></svg>